# xmcd
#
# Track frame offsets: 
#        150
#        9389
#        23822
#        30469
#        40962
#        49480
#        55933
#        71024
#        84007
#        96032
#        111051
#        120055
#
# Disc length: 1715 seconds
#
# Revision: 0
# Processed by: cddbd v1.5.2PL0 Copyright (c) Steve Scherf et al.
# Submitted via: ExactAudioCopy v1.3
#
DISCID=8806b10c
DTITLE=Magic Sam - Chi-Town Boogie and Other Favorit
DYEAR=2015
DGENRE=Chicago Blues
TTITLE0=Chi-Town Boogie
TTITLE1=Sly And Sleazy
TTITLE2=Creole 'n' Roll
TTITLE3=Blues 'nooze
TTITLE4=E.J.'s Thing
TTITLE5=F.P. Blues
TTITLE6=P.J. Blues
TTITLE7=West Madison Street Blues
TTITLE8=Boppin' The Blues
TTITLE9=43Rd And S. Park Blues
TTITLE10=Scatter Blues
TTITLE11=Black Magic Blues
EXTD=
EXTT0=
EXTT1=
EXTT2=
EXTT3=
EXTT4=
EXTT5=
EXTT6=
EXTT7=
EXTT8=
EXTT9=
EXTT10=
EXTT11=
PLAYORDER=
